General
Count                            : 278
Count of stream of this kind     : 1
Kind of stream                   : General
Kind of stream                   : General
Stream identifier                : 0
Count of video streams           : 1
Count of audio streams           : 1
Count of menu streams            : 1
Video_Format_List                : MPEG Video
Video_Format_WithHint_List       : MPEG Video
Codecs Video                     : MPEG-2 Video
Audio_Format_List                : DTS
Audio_Format_WithHint_List       : DTS
Audio codecs                     : DTS
Menu_Format_List                 : DVD-Video
Menu_Format_WithHint_List        : DVD-Video
Menu codecs                      : DVD-Video
Complete name                    : _MPG_DTS_9624_5.1.mpg
File name                        : _MPG_DTS_9624_5.1.mpg
File extension                   : mpg
Format                           : MPEG-PS
Format                           : MPEG-PS
Format/Extensions usually used   : mpeg mpg m2p vob pss
Commercial name                  : MPEG-PS
Internet media type              : video/MP2P
Codec                            : MPEG-PS
Codec                            : MPEG-PS
Codec/Extensions usually used    : mpeg mpg m2p vob pss
File size                        : 15247360
File size                        : 14.5 MiB
File size                        : 15 MiB
File size                        : 15 MiB
File size                        : 14.5 MiB
File size                        : 14.54 MiB
Duration                         : 18051
Duration                         : 18s 51ms
Duration                         : 18s 51ms
Duration                         : 18s 51ms
Duration                         : 00:00:18.051
Overall bit rate                 : 6757458
Overall bit rate                 : 6 757 Kbps
Stream size                      : 322106
Stream size                      : 315 KiB (2%)
Stream size                      : 315 KiB
Stream size                      : 315 KiB
Stream size                      : 315 KiB
Stream size                      : 314.6 KiB
Stream size                      : 315 KiB (2%)
Proportion of this stream        : 0.02113
File creation date               : UTC 2011-11-28 08:45:32.809
File creation date (local)       : 2011-11-28 08:45:32.809
File last modification date      : UTC 2010-06-23 07:02:33.152
File last modification date (loc : 2010-06-23 07:02:33.152

Video
Count                            : 201
Count of stream of this kind     : 1
Kind of stream                   : Video
Kind of stream                   : Video
Stream identifier                : 0
ID                               : 224
ID                               : 224 (0xE0)
Format                           : MPEG Video
Commercial name                  : MPEG-2 Video
Format version                   : Version 2
Format profile                   : Main@Main
Format settings                  : BVOP
Format settings, BVOP            : Yes
Format settings, BVOP            : Yes
Format settings, Matrix          : Default
Format settings, Matrix          : Default
Format settings, GOP             : M=3, N=15
Internet media type              : video/MPV
Codec                            : MPEG-2V
Codec                            : MPEG-2 Video
Codec/Family                     : MPEG-V
Codec profile                    : Main@Main
Codec settings, Matrix           : Default
Duration                         : 18051
Duration                         : 18s 51ms
Duration                         : 18s 51ms
Duration                         : 18s 51ms
Duration                         : 00:00:18.051
Bit rate mode                    : VBR
Bit rate mode                    : Variable
Bit rate                         : 5113235
Bit rate                         : 5 113 Kbps
Maximum bit rate                 : 8300000
Maximum bit rate                 : 8 300 Kbps
Width                            : 720
Width                            : 720 pixels
Height                           : 480
Height                           : 480 pixels
Pixel aspect ratio               : 0.889
Display aspect ratio             : 1.333
Display aspect ratio             : 4:3
Frame rate                       : 29.970
Frame rate                       : 29.970 fps
Frame count                      : 541
Standard                         : NTSC
Resolution                       : 8
Resolution                       : 8 bits
Colorimetry                      : 4:2:0
Color space                      : YUV
Chroma subsampling               : 4:2:0
Bit depth                        : 8
Bit depth                        : 8 bits
Scan type                        : Interlaced
Scan type                        : Interlaced
Scan order                       : BFF
Scan order                       : Bottom Field First
Interlacement                    : BFF
Interlacement                    : Bottom Field First
Compression mode                 : Lossy
Compression mode                 : Lossy
Bits/(Pixel*Frame)               : 0.494
Delay                            : 233.567
Delay                            : 234ms
Delay                            : 234ms
Delay                            : 234ms
Delay                            : 00:00:00.234
Delay, origin                    : Container
Delay, origin                    : Container
Delay_Original                   : 0
Delay_Original                   : 00:00:00.000
Delay_Original_Settings          : drop_frame_flag=0 / closed_gop=1 / broken_link=0
Delay_Original_Source            : Stream
Stream size                      : 11537375
Stream size                      : 11.0 MiB (76%)
Stream size                      : 11 MiB
Stream size                      : 11 MiB
Stream size                      : 11.0 MiB
Stream size                      : 11.00 MiB
Stream size                      : 11.0 MiB (76%)
Proportion of this stream        : 0.75668
Buffer size                      : 229376
intra_dc_precision               : 10

Audio
Count                            : 169
Count of stream of this kind     : 1
Kind of stream                   : Audio
Kind of stream                   : Audio
Stream identifier                : 0
ID                               : 189-136
ID                               : 189 (0xBD)-136 (0x88)
Format                           : DTS
Format/Info                      : Digital Theater Systems
Commercial name                  : DTS
Format profile                   : 96/24 / Core
Muxing mode                      : DVD-Video
Codec                            : DTS
Codec                            : DTS
Duration                         : 17952
Duration                         : 17s 952ms
Duration                         : 17s 952ms
Duration                         : 17s 952ms
Duration                         : 00:00:17.952
Bit rate mode                    : CBR
Bit rate mode                    : Constant
Bit rate                         : 1509750
Bit rate                         : 1 510 Kbps
Channel(s)                       : 6
Channel(s)                       : 6 channels
Channel positions                : Front: L C R, Side: L R, LFE
Channel positions                : 3/2/0.1
Sampling rate                    : 96000 / 48000
Sampling rate                    : 96.0 KHz / 48.0 KHz
Samples count                    : 1723392
Frame count                      : 561
Resolution                       : 24
Resolution                       : 24 bits
Bit depth                        : 24
Bit depth                        : 24 bits
Compression mode                 : Lossy
Compression mode                 : Lossy
Delay                            : 233.567
Delay                            : 234ms
Delay                            : 234ms
Delay                            : 234ms
Delay                            : 00:00:00.234
Delay, origin                    : Container
Delay, origin                    : Container
Delay relative to video          : 0
Video0 delay                     : 0
Stream size                      : 3387879
Stream size                      : 3.23 MiB (22%)
Stream size                      : 3 MiB
Stream size                      : 3.2 MiB
Stream size                      : 3.23 MiB
Stream size                      : 3.231 MiB
Stream size                      : 3.23 MiB (22%)
Proportion of this stream        : 0.22219

Menu
Count                            : 72
Count of stream of this kind     : 1
Kind of stream                   : Menu
Kind of stream                   : Menu
Stream identifier                : 0
Format                           : DVD-Video
Commercial name                  : DVD-Video
Codec                            : DVD-Video
Codec                            : DVD-Video

